<svg xmlns="http://www.w3.org/2000/svg" version="1.1" xmlns:xlink="http://www.w3.org/1999/xlink" xmlns:svgjs="http://svgjs.dev/svgjs" width="1500" height="1500" viewBox="0 0 1500 1500"><rect width="1500" height="1500" fill="#000000"></rect><g transform="matrix(0.6666666666666666,0,0,0.6666666666666666,250,250)"><svg viewBox="0 0 280 280" data-background-color="#000000" preserveAspectRatio="xMidYMid meet" height="1500" width="1500" xmlns="http://www.w3.org/2000/svg" xmlns:xlink="http://www.w3.org/1999/xlink"><g id="tight-bounds" transform="matrix(1,0,0,1,0,0)"><svg viewBox="0 0 280 280" height="280" width="280"><g><svg viewBox="0 0 280 280" height="280" width="280"><g><svg viewBox="0 0 280 280" height="280" width="280"><g id="textblocktransform"><svg viewBox="0 0 280 280" height="280" width="280" id="textblock"><g><svg viewBox="0 0 280 280" height="280" width="280"><g transform="matrix(1,0,0,1,90.50252531694167,90.50252531694167)"><svg viewBox="0 0 98.99494936611666 98.99494936611666" height="98.99494936611666" width="98.99494936611666"><g id="icon-0"><svg xmlns="http://www.w3.org/2000/svg" xmlns:xlink="http://www.w3.org/1999/xlink" version="1.1" x="0" y="0" viewBox="2 2 48 48" enable-background="new 0 0 52 52" xml:space="preserve" height="98.99494936611666" width="98.99494936611666" class="icon-xg-0" data-fill-palette-color="accent" id="xg-0"><g fill="#dedede" data-fill-palette-color="accent"><g fill="#dedede" data-fill-palette-color="accent"><polygon points="44,5 44,10 42,10 42,5 38,5 38,10 36,10 36,5 17,5 17,10 15,10 15,5 11,5 11,10 9,10 9,5 2,5 2,13 50,13 50,5       " fill="#ffffff" data-fill-palette-color="accent"></polygon><path d="M2 50h48V15H2V50zM26 19.5c2.95 0 5.34 2.4 5.34 5.34S28.95 30.17 26 30.17c-2.93 0-5.33-2.39-5.33-5.33S23.07 19.5 26 19.5zM14 42.17c0-5.51 5.39-10 12-10 6.63 0 12 4.49 12 10V43.5H14V42.17z" fill="#ffffff" data-fill-palette-color="accent"></path><rect x="9" y="2" width="2" height="3" fill="#ffffff" data-fill-palette-color="accent"></rect><rect x="15" y="2" width="2" height="3" fill="#ffffff" data-fill-palette-color="accent"></rect><rect x="36" y="2" width="2" height="3" fill="#ffffff" data-fill-palette-color="accent"></rect></g><g fill="#dedede" data-fill-palette-color="accent"><rect x="42" y="2" width="2" height="3" fill="#ffffff" data-fill-palette-color="accent"></rect></g></g></svg></g></svg></g><g id="text-0"><path d="M96.268 30.277l2.696-1.085-6.074-7.087-7.52 3.027 0.378 9.38 2.849-1.147 0.29 0.722-5.81 2.339-0.291-0.722 1.785-0.718-0.819-29.989 3.114-1.253 20.073 22.237 1.747-0.703 0.291 0.721-12.419 5zM92.249 21.392l-7.309-8.62 0.436 11.387z" fill="#ffffff" data-fill-palette-color="primary"></path><path d="M189.397 32.685l2.653 1.185 0.88-9.292-7.401-3.307-6.486 6.787 2.804 1.253-0.318 0.71-5.718-2.555 0.317-0.711 1.757 0.785 21.005-21.418 3.065 1.369-2.055 29.887 1.719 0.768-0.317 0.71-12.223-5.461zM192.998 23.622l1.124-11.246-7.889 8.223z" fill="#ffffff" data-fill-palette-color="primary"></path><path d="M89.714 270.496l2.726 1.093 0.516-9.397-7.58-3.041-6.273 7.089 2.869 1.151-0.293 0.731-5.861-2.35 0.293-0.732 1.805 0.724 20.332-22.402 3.134 1.258-0.896 30.196 1.766 0.709-0.293 0.731-12.539-5.029zM92.991 261.224l0.693-11.377-7.627 8.596z" fill="#ffffff" data-fill-palette-color="primary"></path><path d="M196.819 267.722l2.681-1.2-6.398-6.903-7.454 3.337 0.736 9.437 2.822-1.263 0.322 0.72-5.764 2.58-0.322-0.72 1.775-0.794-1.975-30.188 3.083-1.38 21.087 21.632 1.738-0.777 0.322 0.719-12.331 5.52zM192.431 258.922l-7.699-8.406 0.88 11.458z" fill="#ffffff" data-fill-palette-color="primary"></path><path d="M0 142.009c0-6.098 4.943-11.041 11.041-11.041 6.098 0 11.041 4.943 11.041 11.041 0 6.098-4.943 11.041-11.041 11.041-6.098 0-11.041-4.943-11.041-11.041z" fill="#ffffff" data-fill-palette-color="primary"></path><path d="M257.918 142.009c0-6.098 4.943-11.041 11.041-11.041 6.098 0 11.041 4.943 11.041 11.041 0 6.098-4.943 11.041-11.041 11.041-6.098 0-11.041-4.943-11.041-11.041z" fill="#ffffff" data-fill-palette-color="primary"></path></g><g id="text-1"></g></svg></g></svg></g></svg></g></svg></g><defs></defs></svg><rect width="280" height="280" fill="none" stroke="none" visibility="hidden"></rect></g></svg></g></svg>