<?xml version="1.0" encoding="iso-8859-1"?>
<!-- Generator: Adobe Illustrator 19.0.0, SVG Export Plug-In . SVG Version: 6.00 Build 0)  -->
<svg xmlns="http://www.w3.org/2000/svg" xmlns:xlink="http://www.w3.org/1999/xlink" version="1.1" id="Capa_1" x="0px" y="0px" viewBox="0 0 512.001 512.001" style="enable-background:new 0 0 512.001 512.001;" xml:space="preserve">
<path style="fill:#E0E0E0;" d="M418.47,65.72v24.151c0,12.349-10.011,22.36-22.36,22.36l0,0c-12.349,0-22.36-10.011-22.36-22.36  V65.72H107.118v24.15c0,12.349-10.011,22.36-22.36,22.36l0,0c-12.349,0-22.36-10.011-22.36-22.36V65.72H7.534v364.13h252.333  c-8.324-17.582-12.781-37.351-12.254-58.215c1.738-68.779,58.189-124.376,126.986-125.119c39.187-0.423,74.382,16.707,98.217,44.011  V65.721L418.47,65.72L418.47,65.72z"/>
<path style="fill:#BFBFBF;" d="M418.47,89.87c0,12.349-10.011,22.36-22.36,22.36s-22.36-10.011-22.36-22.36V65.72H107.118v24.15  c0,12.349-10.011,22.36-22.36,22.36c-12.349,0-22.36-10.011-22.36-22.36V65.72H7.534v111.533h465.282V65.72h-54.345v24.15H418.47z"/>
<path style="fill:#EF3A47;" d="M418.47,65.72v24.151c0,12.349-10.011,22.36-22.36,22.36l0,0c-12.349,0-22.36-10.011-22.36-22.36  V65.72H107.118v24.15c0,12.349-10.011,22.36-22.36,22.36l0,0c-12.349,0-22.36-10.011-22.36-22.36V65.72H7.793v81.545h465.282V65.72  C473.075,65.72,418.47,65.72,418.47,65.72z"/>
<g>
	<path style="fill:#F2CA5A;" d="M84.758,112.23L84.758,112.23c-12.349,0-22.36-10.011-22.36-22.36V30.96   c0-12.349,10.011-22.36,22.36-22.36l0,0c12.349,0,22.36,10.011,22.36,22.36V89.87C107.118,102.219,97.106,112.23,84.758,112.23z"/>
	<path style="fill:#F2CA5A;" d="M396.111,112.23L396.111,112.23c-12.349,0-22.36-10.011-22.36-22.36V30.96   c0-12.349,10.011-22.36,22.36-22.36l0,0c12.349,0,22.36,10.011,22.36,22.36V89.87C418.47,102.219,408.459,112.23,396.111,112.23z"/>
</g>
<g>
	<path style="fill:#FFAE47;" d="M84.758,82.095c-12.349,0-22.36-10.011-22.36-22.36V89.87c0,12.349,10.011,22.36,22.36,22.36   s22.36-10.011,22.36-22.36V59.735C107.118,72.084,97.106,82.095,84.758,82.095z"/>
	<path style="fill:#FFAE47;" d="M396.111,82.095L396.111,82.095c-12.349,0-22.36-10.011-22.36-22.36V89.87   c0,12.349,10.011,22.36,22.36,22.36l0,0c12.349,0,22.36-10.011,22.36-22.36V59.735C418.47,72.084,408.459,82.095,396.111,82.095z"/>
</g>
<circle style="fill:#EF3A47;" cx="376.021" cy="374.957" r="128.444"/>
<path style="fill:#CE3043;" d="M376.019,246.507c-5.098,0-10.124,0.306-15.067,0.884c63.838,7.46,113.381,61.722,113.381,127.563  S424.79,495.057,360.952,502.518c4.943,0.578,9.97,0.884,15.067,0.884c70.94,0,128.448-57.508,128.448-128.448  S446.958,246.507,376.019,246.507z"/>
<path style="fill:#F2F2F2;" d="M422.138,353.329h-25.975v-25.975c0-3.991-3.235-7.226-7.226-7.226h-25.836  c-3.991,0-7.226,3.235-7.226,7.226v25.975H329.9c-3.991,0-7.226,3.235-7.226,7.226v25.836c0,3.991,3.235,7.226,7.226,7.226h25.975  v25.975c0,3.991,3.235,7.226,7.226,7.226h25.836c3.991,0,7.226-3.235,7.226-7.226v-25.975h25.975c3.991,0,7.225-3.235,7.225-7.226  v-25.836C429.364,356.564,426.129,353.329,422.138,353.329z"/>
<g>
	<rect x="82.75" y="197.966" style="fill:#565656;" width="48.537" height="48.537"/>
	<rect x="171.688" y="197.966" style="fill:#565656;" width="48.537" height="48.537"/>
	<rect x="260.635" y="197.966" style="fill:#565656;" width="48.537" height="48.537"/>
	<rect x="349.583" y="197.966" style="fill:#565656;" width="48.537" height="48.537"/>
	<rect x="82.75" y="302.172" style="fill:#565656;" width="48.537" height="48.537"/>
	<rect x="171.688" y="302.172" style="fill:#565656;" width="48.537" height="48.537"/>
</g>
<rect x="7.793" y="117.125" style="fill:#CE3043;" width="465.28" height="30.135"/>
<path d="M480.349,287.845V149.196c0.164-0.618,0.259-1.263,0.259-1.932V65.72c0-4.162-3.373-7.534-7.534-7.534h-0.259h-46.811V30.96  c0-16.483-13.411-29.894-29.894-29.894c-16.484,0-29.894,13.411-29.894,29.894v27.226H195.962h-2.009  c-4.161,0-7.534,3.372-7.534,7.534c0,4.162,3.373,7.534,7.534,7.534h2.009h170.255V89.87c0,16.483,13.411,29.894,29.894,29.894  c16.484,0,29.894-13.411,29.894-29.894V73.253h39.278v66.477h-91.531c-4.161,0-7.534,3.372-7.534,7.534s3.373,7.534,7.534,7.534  h91.53v117.579c-11.721-10.206-25.03-18.26-39.321-23.902c-0.174-0.068-0.349-0.135-0.522-0.203  c-0.757-0.295-1.516-0.586-2.277-0.868c-0.419-0.155-0.84-0.305-1.26-0.457c-0.515-0.185-1.031-0.368-1.548-0.546  c-0.577-0.2-1.156-0.394-1.736-0.586c-0.352-0.116-0.704-0.231-1.057-0.344c-0.705-0.227-1.413-0.449-2.124-0.665  c-0.208-0.063-0.416-0.125-0.625-0.186c-0.832-0.248-1.666-0.49-2.504-0.722c-0.036-0.01-0.072-0.019-0.107-0.029  c-2.162-0.597-4.344-1.142-6.547-1.633v-44.268c0-4.162-3.373-7.534-7.534-7.534h-48.54c-4.161,0-7.534,3.372-7.534,7.534v45.302  c-39.732,10.256-72.475,38.07-89.445,74.633c-0.026,0.055-0.052,0.111-0.078,0.167c-0.385,0.832-0.759,1.667-1.127,2.508  c-0.091,0.208-0.184,0.416-0.274,0.626c-0.307,0.711-0.607,1.425-0.902,2.143c-0.139,0.336-0.276,0.67-0.412,1.007  c-0.247,0.614-0.488,1.23-0.727,1.849c-0.169,0.437-0.337,0.874-0.5,1.313c-0.202,0.54-0.399,1.083-0.595,1.626  c-0.186,0.517-0.369,1.035-0.548,1.554c-0.167,0.483-0.33,0.968-0.492,1.453c-0.193,0.579-0.382,1.158-0.566,1.739  c-0.142,0.444-0.28,0.89-0.417,1.336c-0.191,0.625-0.378,1.251-0.56,1.878c-0.121,0.415-0.239,0.83-0.356,1.246  c-0.185,0.66-0.364,1.322-0.538,1.985c-0.104,0.397-0.209,0.794-0.309,1.191c-0.174,0.684-0.341,1.37-0.503,2.057  c-0.091,0.386-0.183,0.77-0.271,1.157c-0.161,0.705-0.313,1.412-0.463,2.12c-0.079,0.375-0.159,0.749-0.235,1.126  c-0.146,0.722-0.282,1.445-0.417,2.17c-0.068,0.371-0.139,0.74-0.205,1.112c-0.13,0.735-0.25,1.474-0.368,2.212  c-0.058,0.365-0.119,0.727-0.174,1.093c-0.114,0.754-0.217,1.512-0.318,2.269c-0.047,0.354-0.098,0.705-0.143,1.06  c-0.097,0.778-0.184,1.56-0.268,2.341c-0.036,0.339-0.077,0.675-0.111,1.014c-0.081,0.815-0.151,1.632-0.218,2.451  c-0.025,0.308-0.056,0.616-0.079,0.924c-0.067,0.899-0.122,1.8-0.172,2.701c-0.013,0.231-0.031,0.462-0.042,0.693  c-0.057,1.137-0.101,2.277-0.131,3.419v0.005c0,0.012,0,0.023,0,0.035c-0.028,1.136-0.042,2.268-0.043,3.399  c0,0.024-0.001,0.047-0.001,0.07c0,0.173,0.006,0.345,0.007,0.517c0.003,0.979,0.014,1.957,0.037,2.932  c0.002,0.092,0.007,0.185,0.009,0.277c0.393,15.051,3.21,29.663,8.422,43.634H131.289c-4.161,0-7.534,3.372-7.534,7.534  c0,4.162,3.373,7.534,7.534,7.534H255.24c22.657,43.656,68.29,73.554,120.779,73.554c74.981,0,135.982-61.001,135.982-135.981  C512,341.839,500.096,311.455,480.349,287.845z M410.937,89.87c0,8.176-6.651,14.826-14.826,14.826  c-7.153,0-13.14-5.092-14.525-11.842c-0.198-0.964-0.301-1.963-0.301-2.984V65.72V30.96c0-8.176,6.652-14.826,14.826-14.826  c8.176,0,14.826,6.651,14.826,14.826V65.72L410.937,89.87L410.937,89.87z M357.115,205.501h33.473v33.472h-33.473V205.501z   M376.018,495.869c-63.479,0-115.688-49.171-120.543-111.425c-0.011-0.143-0.022-0.285-0.032-0.429  c-0.062-0.831-0.114-1.663-0.159-2.499c-0.019-0.361-0.034-0.722-0.05-1.083c-0.03-0.674-0.058-1.35-0.077-2.027  c-0.016-0.593-0.023-1.187-0.031-1.782c-0.007-0.485-0.017-0.969-0.018-1.456c-0.001-1.108,0.009-2.217,0.037-3.33  c0.026-1.023,0.065-2.042,0.117-3.059c0.008-0.155,0.02-0.307,0.028-0.461c0.046-0.855,0.098-1.708,0.163-2.557  c0.018-0.243,0.042-0.485,0.062-0.727c0.062-0.757,0.127-1.515,0.202-2.268c0.029-0.289,0.064-0.578,0.095-0.867  c0.076-0.703,0.154-1.406,0.241-2.106c0.04-0.32,0.086-0.64,0.13-0.959c0.088-0.663,0.179-1.326,0.278-1.985  c0.053-0.35,0.111-0.699,0.167-1.048c0.099-0.624,0.201-1.248,0.31-1.868c0.066-0.378,0.139-0.755,0.208-1.132  c0.108-0.586,0.22-1.171,0.338-1.755c0.082-0.406,0.169-0.811,0.254-1.215c0.116-0.546,0.234-1.093,0.357-1.636  c0.099-0.438,0.203-0.876,0.307-1.313c0.12-0.502,0.241-1.003,0.368-1.503c0.12-0.475,0.244-0.949,0.37-1.423  c0.12-0.451,0.241-0.9,0.366-1.349c0.146-0.521,0.294-1.042,0.446-1.561c0.114-0.387,0.228-0.773,0.346-1.158  c0.177-0.581,0.357-1.159,0.542-1.737c0.098-0.308,0.199-0.616,0.3-0.923c0.216-0.654,0.436-1.307,0.663-1.957  c0.074-0.215,0.151-0.429,0.227-0.643c0.263-0.741,0.532-1.48,0.81-2.215c0.04-0.106,0.081-0.213,0.122-0.319  c6.114-16.039,15.68-30.744,28.284-43.161c18.267-17.996,41.246-29.547,66.014-33.43c0.007-0.001,0.014-0.002,0.022-0.004  c0.749-0.118,1.503-0.222,2.255-0.325c0.242-0.033,0.483-0.07,0.726-0.102c0.627-0.082,1.256-0.154,1.884-0.226  c0.371-0.043,0.74-0.088,1.113-0.128c0.553-0.058,1.108-0.107,1.662-0.159c0.451-0.041,0.901-0.084,1.353-0.121  c0.509-0.041,1.02-0.074,1.53-0.108c0.496-0.033,0.991-0.067,1.49-0.094c0.489-0.027,0.98-0.048,1.471-0.069  c0.517-0.022,1.035-0.043,1.554-0.059c0.487-0.015,0.974-0.024,1.462-0.033c0.495-0.009,0.991-0.016,1.488-0.019  c0.645-0.004,1.29-0.001,1.934,0.005c0.416,0.004,0.833,0.008,1.248,0.016c0.723,0.014,1.444,0.038,2.166,0.065  c0.326,0.012,0.653,0.022,0.979,0.037c0.861,0.04,1.72,0.089,2.578,0.148c0.185,0.012,0.37,0.022,0.553,0.035  c7.615,0.548,15.109,1.809,22.391,3.746c0.023,0.006,0.046,0.013,0.069,0.019c0.97,0.259,1.937,0.531,2.899,0.814  c0.153,0.045,0.305,0.09,0.457,0.137c0.815,0.242,1.625,0.494,2.434,0.754c0.274,0.088,0.547,0.177,0.821,0.267  c0.661,0.217,1.319,0.442,1.976,0.671c0.399,0.14,0.799,0.278,1.196,0.422c0.488,0.176,0.973,0.358,1.46,0.539  c0.549,0.207,1.099,0.412,1.644,0.627c0.26,0.101,0.518,0.208,0.778,0.311c44.54,17.847,76.082,61.454,76.082,112.293  C496.933,441.627,442.691,495.869,376.018,495.869z"/>
<path d="M138.822,197.967c0-4.162-3.373-7.534-7.534-7.534h-48.54c-4.161,0-7.534,3.372-7.534,7.534v48.539  c0,4.162,3.373,7.534,7.534,7.534h48.54c4.161,0,7.534-3.372,7.534-7.534V197.967z M123.754,238.973H90.282v-33.472h33.473  C123.754,205.502,123.754,238.973,123.754,238.973z"/>
<path d="M227.765,197.967c0-4.162-3.373-7.534-7.534-7.534h-48.54c-4.161,0-7.534,3.372-7.534,7.534v48.539  c0,4.162,3.373,7.534,7.534,7.534h48.54c4.161,0,7.534-3.372,7.534-7.534V197.967z M212.698,238.973h-33.473v-33.472h33.473V238.973  z"/>
<path d="M260.636,190.433c-4.161,0-7.534,3.372-7.534,7.534v48.539c0,4.162,3.373,7.534,7.534,7.534h48.54  c4.161,0,7.534-3.372,7.534-7.534v-48.539c0-4.162-3.373-7.534-7.534-7.534H260.636z M301.643,238.973H268.17v-33.472h33.473  V238.973z"/>
<path d="M131.288,294.64h-48.54c-4.161,0-7.534,3.372-7.534,7.534v48.539c0,4.161,3.373,7.534,7.534,7.534h48.54  c4.161,0,7.534-3.373,7.534-7.534v-48.539C138.822,298.012,135.449,294.64,131.288,294.64z M123.754,343.179H90.282v-33.472h33.473  C123.754,309.708,123.754,343.179,123.754,343.179z"/>
<path d="M220.232,294.64h-48.54c-4.161,0-7.534,3.372-7.534,7.534v48.539c0,4.161,3.373,7.534,7.534,7.534h48.54  c4.161,0,7.534-3.373,7.534-7.534v-48.539C227.765,298.012,224.393,294.64,220.232,294.64z M212.698,343.179h-33.473v-33.472h33.473  V343.179z"/>
<path d="M98.406,422.315H15.067V154.798h322.394c4.161,0,7.534-3.372,7.534-7.534s-3.373-7.534-7.534-7.534H15.327V73.253h39.537  V89.87c0,16.483,13.41,29.894,29.894,29.894s29.894-13.411,29.894-29.894V73.253h43.777c4.161,0,7.534-3.372,7.534-7.534  c0-4.162-3.373-7.534-7.534-7.534h-43.777V30.96c0-16.483-13.411-29.894-29.894-29.894S54.863,14.478,54.863,30.96v27.226H7.793  H7.534C3.373,58.186,0,61.558,0,65.72v364.129c0,4.162,3.373,7.534,7.534,7.534h90.872c4.161,0,7.534-3.372,7.534-7.534  C105.94,425.687,102.567,422.315,98.406,422.315z M69.932,30.96c0-8.176,6.651-14.826,14.826-14.826s14.826,6.651,14.826,14.826  V65.72v24.15c0,8.176-6.652,14.826-14.826,14.826S69.932,98.045,69.932,89.87V65.72V30.96z"/>
<path d="M422.137,345.795h-18.441v-18.441c0-8.138-6.621-14.759-14.759-14.759h-25.836c-8.138,0-14.759,6.622-14.759,14.759v18.441  H329.9c-8.138,0-14.759,6.622-14.759,14.759v25.837c0,8.138,6.621,14.759,14.759,14.759h18.442v18.441  c0,8.138,6.621,14.759,14.759,14.759h25.836c8.138,0,14.759-6.622,14.759-14.759v-18.441h18.441c8.138,0,14.76-6.622,14.76-14.759  v-25.837C436.897,352.417,430.277,345.795,422.137,345.795z M421.83,386.083h-25.668c-4.161,0-7.534,3.372-7.534,7.534v25.668  h-25.22v-25.668c0-4.162-3.373-7.534-7.534-7.534h-25.668v-25.22h25.668c4.161,0,7.534-3.372,7.534-7.534v-25.668h25.22v25.668  c0,4.162,3.373,7.534,7.534,7.534h25.668V386.083z"/>
<g>
</g>
<g>
</g>
<g>
</g>
<g>
</g>
<g>
</g>
<g>
</g>
<g>
</g>
<g>
</g>
<g>
</g>
<g>
</g>
<g>
</g>
<g>
</g>
<g>
</g>
<g>
</g>
<g>
</g>
</svg>
